<svg id="npa-logo" xmlns="http://www.w3.org/2000/svg" viewBox="489 919 118 118">
  <defs>
    <style>
      .cls-1 {
        fill: #df691a;
      }

      .cls-2, .cls-4 {
        fill: none;
      }

      .cls-2 {
        stroke: #df691a;
        stroke-width: 5px;
      }

      .cls-3 {
        stroke: none;
      }
    </style>
  </defs>
  <path id="Path_3" data-name="Path 3" class="cls-1" d="M1.08,11.929V-13.34H16.173a12.935,12.935,0,0,1,4.367.682,9.232,9.232,0,0,1,3.2,1.875,7.85,7.85,0,0,1,1.95,2.766,8.606,8.606,0,0,1,.657,3.353,8.467,8.467,0,0,1-.657,3.334,7.9,7.9,0,0,1-1.95,2.747,9.232,9.232,0,0,1-3.2,1.875,12.934,12.934,0,0,1-4.367.682H9.644v7.956ZM15.07-2.695a3.264,3.264,0,0,0,1.844-.492,1.655,1.655,0,0,0,.742-1.477,1.692,1.692,0,0,0-.742-1.515,3.264,3.264,0,0,0-1.844-.492H9.644v3.978Z" transform="translate(536.92 978.874)"/>
  <path id="Path_4" data-name="Path 4" class="cls-1" d="M19.226,11.929l-.909-2.955H9.225l-.909,2.955H-.36L8.959-13.34h9.623L27.9,11.929ZM13.771-5.839l-2.5,8.145h5Z" transform="translate(561.36 978.874)"/>
  <g id="Rectangle_15" data-name="Rectangle 15" class="cls-2" transform="translate(489 919)">
    <rect class="cls-3" width="118" height="118" rx="59"/>
    <rect class="cls-4" x="2.5" y="2.5" width="113" height="113" rx="56.5"/>
  </g>
  <path id="Path_5" data-name="Path 5" class="cls-1" d="M18.031,11.9,8.723-.892V11.9H1.08V-13.34H8.95L17.728-1.384V-13.34h7.643V11.9Z" transform="translate(508.92 978.874)"/>
</svg>
